<?xml version="1.0" encoding="UTF-8"?>
<svg width="64px" height="64px" viewBox="0 0 64 64" version="1.1" xmlns="http://www.w3.org/2000/svg" xmlns:xlink="http://www.w3.org/1999/xlink">
    <!-- Generator: Sketch 64 (93537) - https://sketch.com -->
    <title>Icon-Industry/64/Automotive</title>
    <desc>Created with Sketch.</desc>
    <g id="Icon-Industry/64/Automotive" stroke="none" stroke-width="1" fill="none" fill-rule="evenodd">
        <path d="M41.838734,35.5458889 L40.568734,33.9938889 C39.922734,34.5228889 36.837734,35.2678889 32.002734,35.2678889 C27.167734,35.2678889 24.082734,34.5228889 23.436734,33.9938889 L22.166734,35.5458889 C23.724734,36.8198889 28.439734,37.2728889 32.002734,37.2728889 C35.566734,37.2728889 40.280734,36.8198889 41.838734,35.5458889 L41.838734,35.5458889 Z M49.942734,32.1198889 C48.569734,32.1198889 47.453734,33.2358889 47.453734,34.6078889 C47.453734,35.9798889 48.569734,37.0958889 49.942734,37.0958889 C51.313734,37.0958889 52.429734,35.9798889 52.429734,34.6078889 C52.429734,33.2358889 51.313734,32.1198889 49.942734,32.1198889 L49.942734,32.1198889 Z M49.942734,39.0958889 C47.467734,39.0958889 45.453734,37.0828889 45.453734,34.6078889 C45.453734,32.1328889 47.467734,30.1198889 49.942734,30.1198889 C52.416734,30.1198889 54.429734,32.1328889 54.429734,34.6078889 C54.429734,37.0828889 52.416734,39.0958889 49.942734,39.0958889 L49.942734,39.0958889 Z M57.000734,39.9058889 C57.000734,40.4918889 56.005734,40.7638889 55.727734,40.8278889 C55.225734,40.9128889 49.431734,41.3888889 41.834734,41.6628889 L40.864734,40.2128889 C40.679734,39.9348889 40.366734,39.7678889 40.031734,39.7678889 L23.973734,39.7678889 C23.638734,39.7678889 23.325734,39.9348889 23.140734,40.2128889 L22.170734,41.6628889 C14.573734,41.3888889 8.78073402,40.9138889 8.30473402,40.8328889 C7.99973402,40.7638889 7.00473402,40.4918889 7.00473402,39.9058889 L7.00473402,32.6028889 C7.00473402,31.8558889 7.26973402,31.1348889 7.74973402,30.5748889 L11.994734,25.6158889 C14.404734,25.8918889 24.432734,26.9908889 31.063734,26.9908889 C31.367734,26.9908889 31.681734,26.9888889 32.002734,26.9848889 C32.323734,26.9888889 32.637734,26.9908889 32.942734,26.9908889 C39.572734,26.9908889 49.600734,25.8918889 52.010734,25.6158889 L56.255734,30.5748889 C56.735734,31.1348889 57.000734,31.8558889 57.000734,32.6028889 L57.000734,39.9058889 Z M57.000734,43.6218889 C57.000734,44.3328889 56.323734,44.6538889 55.794734,44.7898889 C55.336734,44.8698889 50.627734,45.2238889 44.389734,45.4838889 L43.143734,43.6198889 C50.094734,43.3408889 55.658734,42.8988889 56.146734,42.7878889 C56.455734,42.7168889 56.735734,42.6198889 57.000734,42.5108889 L57.000734,43.6218889 Z M54.000734,50.3628889 C54.000734,51.1368889 53.463734,51.7678889 52.803734,51.7678889 L50.201734,51.7678889 C49.541734,51.7678889 49.004734,51.1368889 49.004734,50.3628889 L49.004734,47.1218889 C50.960734,47.0398889 52.706734,46.9618889 54.000734,46.8958889 L54.000734,50.3628889 Z M21.966734,45.5738889 L24.508734,41.7698889 L39.496734,41.7698889 L42.037734,45.5738889 C38.868734,45.6848889 25.135734,45.6848889 21.966734,45.5738889 L21.966734,45.5738889 Z M19.615734,45.4838889 C13.382734,45.2258889 8.68373402,44.8728889 8.24973402,44.7978889 C7.68173402,44.6538889 7.00473402,44.3328889 7.00473402,43.6218889 L7.00473402,42.5108889 C7.26973402,42.6198889 7.54973402,42.7168889 7.85973402,42.7878889 C8.34673402,42.8988889 13.910734,43.3408889 20.861734,43.6198889 L19.615734,45.4838889 Z M15.000734,50.3628889 C15.000734,51.1368889 14.463734,51.7678889 13.803734,51.7678889 L11.201734,51.7678889 C10.541734,51.7678889 10.004734,51.1368889 10.004734,50.3628889 L10.004734,46.9618889 C11.263734,47.0558889 12.978734,47.1668889 15.000734,47.2748889 L15.000734,50.3628889 Z M6.10973402,24.2288889 C7.19373402,24.1098889 9.28673402,24.0708889 10.592734,24.1718889 L8.17173402,26.9998889 C7.24473402,26.9818889 6.40173402,25.5168889 6.10973402,24.2288889 L6.10973402,24.2288889 Z M16.041734,17.0568889 C18.371734,14.3868889 21.459734,13.0228889 31.804734,13.0048889 C31.810734,13.0048889 31.817734,13.0058889 31.822734,13.0058889 L31.957734,13.0058889 C31.972734,13.0068889 31.987734,13.0068889 32.002734,13.0068889 C32.016734,13.0058889 32.032734,13.0068889 32.048734,13.0058889 L32.182734,13.0058889 C32.188734,13.0058889 32.194734,13.0048889 32.200734,13.0048889 C42.545734,13.0228889 45.633734,14.3868889 47.963734,17.0568889 C48.931734,18.1658889 50.169734,21.7268889 50.794734,23.7348889 C47.356734,24.1128889 38.787734,24.9858889 32.942734,24.9858889 L31.063734,24.9858889 C25.217734,24.9858889 16.649734,24.1128889 13.210734,23.7348889 C13.835734,21.7268889 15.073734,18.1658889 16.041734,17.0568889 L16.041734,17.0568889 Z M57.895734,24.2288889 C57.603734,25.5168889 56.760734,26.9818889 55.833734,26.9998889 L53.412734,24.1718889 C54.718734,24.0698889 56.811734,24.1088889 57.895734,24.2288889 L57.895734,24.2288889 Z M57.237734,28.6388889 C58.929734,27.7348889 59.929734,25.3338889 60.004734,23.5638889 L59.626734,22.7038889 C58.714734,21.9158889 53.722734,22.0698889 52.431734,22.2678889 C51.769734,20.2398889 50.603734,17.0338889 49.473734,15.7388889 C46.344734,12.1518889 42.099734,11.0008889 32.002734,11.0008889 C31.922734,11.0008889 31.825734,10.9988889 31.760734,11.0008889 C21.838734,11.0188889 17.635734,12.1808889 14.531734,15.7388889 C13.404734,17.0308889 12.237734,20.2358889 11.573734,22.2678889 C10.282734,22.0688889 5.29073402,21.9158889 4.37873402,22.7038889 C4.14873402,22.9038889 3.98773402,23.2578889 4.00073402,23.5638889 C4.07573402,25.3338889 5.07573402,27.7348889 6.76773402,28.6388889 L6.22673402,29.2708889 C5.43673402,30.1938889 5.00273402,31.3778889 5.00273402,32.6028889 L5.00273402,43.6218889 C5.00273402,45.1368889 6.02973402,46.3028889 7.75573402,46.7408889 C7.79973402,46.7528889 7.88573402,46.7658889 8.00073402,46.7808889 L8.00073402,50.3628889 C8.00073402,52.2428889 9.43673402,53.7698889 11.201734,53.7698889 L13.803734,53.7698889 C15.568734,53.7698889 17.004734,52.2428889 17.004734,50.3628889 L17.004734,47.3758889 C21.405734,47.5868889 26.821734,47.7658889 32.001734,47.7728889 C32.001734,47.7728889 40.147734,47.4828889 47.000734,47.2048889 L47.000734,50.3628889 C47.000734,52.2428889 48.436734,53.7698889 50.201734,53.7698889 L52.803734,53.7698889 C54.568734,53.7698889 56.004734,52.2428889 56.004734,50.3628889 L56.004734,46.7718889 C56.122734,46.7608889 56.215734,46.7508889 56.249734,46.7418889 C57.975734,46.3028889 59.002734,45.1368889 59.002734,43.6218889 L59.002734,32.6028889 C59.002734,31.3778889 58.568734,30.1938889 57.778734,29.2708889 L57.237734,28.6388889 Z M14.063734,32.1198889 C12.692734,32.1198889 11.575734,33.2358889 11.575734,34.6078889 C11.575734,35.9798889 12.692734,37.0958889 14.063734,37.0958889 C15.435734,37.0958889 16.551734,35.9798889 16.551734,34.6078889 C16.551734,33.2358889 15.435734,32.1198889 14.063734,32.1198889 L14.063734,32.1198889 Z M14.063734,39.0958889 C11.588734,39.0958889 9.57573402,37.0828889 9.57573402,34.6078889 C9.57573402,32.1328889 11.588734,30.1198889 14.063734,30.1198889 C16.537734,30.1198889 18.551734,32.1328889 18.551734,34.6078889 C18.551734,37.0828889 16.537734,39.0958889 14.063734,39.0958889 L14.063734,39.0958889 Z" id="Automotive_Industry-Icon_64_Squid" fill="#232F3E"></path>
    </g>
</svg>