<?xml version="1.0" encoding="UTF-8"?>
<svg width="64px" height="64px" viewBox="0 0 64 64" version="1.1" xmlns="http://www.w3.org/2000/svg" xmlns:xlink="http://www.w3.org/1999/xlink">
    <!-- Generator: Sketch 64 (93537) - https://sketch.com -->
    <title>Icon-Industry/64/CPG_64</title>
    <desc>Created with Sketch.</desc>
    <g id="Icon-Industry/64/CPG_64" stroke="none" stroke-width="1" fill="none" fill-rule="evenodd">
        <path d="M55.8598755,36.566 C55.3078755,28.279 51.5538755,28 51.5158755,28 L44.1868755,28 C44.0638755,28.007 40.4068755,28.3 39.8558755,36.566 C39.3208755,44.596 39.7088755,53.556 39.8258755,55.871 C40.6818755,56.247 42.8878755,57 46.8128755,57 L48.9028755,57 C52.9288755,57 55.1178755,55.93 55.8868755,55.459 C55.9998755,53.353 56.3998755,44.674 55.8598755,36.566 L55.8598755,36.566 Z M43.8578755,26.03 C44.0328755,26.003 44.1448755,26 44.1738755,26 L51.5288755,26 C51.5598755,26 51.6768755,26.004 51.8578755,26.031 L51.8578755,24 L49.8578755,24 L49.8578755,20 L45.8578755,20 L45.8578755,24 L43.8578755,24 L43.8578755,26.03 Z M57.8558755,56.062 L57.8298755,56.479 L57.5148755,56.753 C57.4108755,56.845 54.8738755,59 48.9028755,59 L46.8128755,59 C40.9188755,59 38.4138755,57.404 38.3098755,57.336 L37.8888755,57.061 L37.8598755,56.559 C37.8528755,56.453 37.2338755,45.827 37.8598755,36.433 C38.2548755,30.518 40.2208755,27.96 41.8578755,26.85 L41.8578755,22 L43.8578755,22 L43.8578755,18 L46.8578755,18 L46.8578755,15 L43.8578755,15 L43.8578755,13 L53.1208755,13 L56.4078755,15.165 L55.3078755,16.835 L52.5208755,15 L48.8578755,15 L48.8578755,18 L51.8578755,18 L51.8578755,22 L53.8578755,22 L53.8578755,26.852 C55.4968755,27.962 57.4628755,30.521 57.8558755,36.433 C58.4818755,45.829 57.8618755,55.961 57.8558755,56.062 L57.8558755,56.062 Z M18.1888755,30.341 L16.8378755,28.867 C16.5258755,29.151 9.2508755,35.959 12.1508755,46.271 L12.3558755,47 L16.8578755,47 L16.8578755,45 L13.8878755,45 C11.8568755,36.307 17.9218755,30.587 18.1888755,30.341 L18.1888755,30.341 Z M30.8578755,11 L28.8578755,11 L28.8578755,6 L19.8578755,6 L19.8578755,11 L17.8578755,11 L17.8578755,14 L30.8578755,14 L30.8578755,11 Z M32.8578755,16 L15.8578755,16 L15.8578755,9 L17.8578755,9 L17.8578755,4 L30.8578755,4 L30.8578755,9 L32.8578755,9 L32.8578755,16 Z M32.5008755,20 L16.3528755,20 C14.7218755,22.083 9.3908755,31.531 8.6128755,37.07 C7.7958755,42.704 7.7968755,47.987 8.6158755,54.742 C8.8248755,56.309 10.1388755,58 11.7598755,58 L35.8578755,58 L35.8578755,60 L11.7598755,60 C8.9678755,60 6.9598755,57.455 6.6308755,54.994 C5.7888755,48.043 5.7898755,42.601 6.6328755,36.787 C7.4888755,30.694 13.5908755,19.893 15.1908755,18.293 L15.4838755,18 L33.1908755,18 L33.4578755,18.199 C35.2448755,19.539 36.7308755,22.519 38.5488755,26.892 L36.7018755,27.659 C35.3578755,24.426 33.9228755,21.282 32.5008755,20 L32.5008755,20 Z" id="CPG_Industry-Icon_64_Squid" fill="#232F3E"></path>
    </g>
</svg>