<?xml version="1.0" encoding="UTF-8"?>
<svg width="64px" height="64px" viewBox="0 0 64 64" version="1.1" xmlns="http://www.w3.org/2000/svg" xmlns:xlink="http://www.w3.org/1999/xlink">
    <!-- Generator: Sketch 64 (93537) - https://sketch.com -->
    <title>Icon-Industry/64/Power-Utilities</title>
    <desc>Created with Sketch.</desc>
    <g id="Icon-Industry/64/Power-Utilities" stroke="none" stroke-width="1" fill="none" fill-rule="evenodd">
        <path d="M59.493,50.8533937 L59.001,52.7913937 C51.646,50.9223937 42.145,49.8933937 32.247,49.8933937 C30.822,49.8933937 29.503,49.9103937 28.247,49.9433937 L28.247,58.8433937 C28.247,59.3953937 27.8,59.8433937 27.247,59.8433937 L23.247,59.8433937 C22.694,59.8433937 22.247,59.3953937 22.247,58.8433937 L22.247,50.2493937 C15.996,50.7123937 10.213,51.5863937 5.494,52.7913937 L5,50.8533937 C9.867,49.6103937 15.823,48.7113937 22.247,48.2433937 L22.247,42.8433937 L24.247,42.8433937 L24.247,57.8433937 L26.247,57.8433937 L26.247,32.8433937 L28.247,32.8433937 L28.247,47.9423937 C29.506,47.9093937 30.824,47.8933937 32.247,47.8933937 C42.306,47.8933937 51.982,48.9443937 59.493,50.8533937 L59.493,50.8533937 Z M53.247,30.8433937 L57.247,30.8433937 L57.247,28.8433937 L53.247,28.8433937 L53.247,30.8433937 Z M50.954,25.5503937 L49.54,24.1363937 L52.54,21.1363937 L53.954,22.5503937 L50.954,25.5503937 Z M40.54,25.5503937 L37.54,22.5503937 L38.954,21.1363937 L41.954,24.1363937 L40.54,25.5503937 Z M52.54,38.5503937 L49.54,35.5503937 L50.954,34.1363937 L53.954,37.1363937 L52.54,38.5503937 Z M45.247,40.8433937 L47.247,40.8433937 L47.247,36.8433937 L45.247,36.8433937 L45.247,40.8433937 Z M38.954,38.5503937 L37.54,37.1363937 L40.54,34.1363937 L41.954,35.5503937 L38.954,38.5503937 Z M34.247,30.8433937 L38.247,30.8433937 L38.247,28.8433937 L34.247,28.8433937 L34.247,30.8433937 Z M45.247,22.8433937 L47.247,22.8433937 L47.247,18.8433937 L45.247,18.8433937 L45.247,22.8433937 Z M46.247,32.8433937 C44.593,32.8433937 43.247,31.4973937 43.247,29.8433937 C43.247,28.1883937 44.593,26.8433937 46.247,26.8433937 C47.901,26.8433937 49.247,28.1883937 49.247,29.8433937 C49.247,31.4973937 47.901,32.8433937 46.247,32.8433937 L46.247,32.8433937 Z M51.247,29.8433937 C51.247,27.0863937 49.004,24.8433937 46.247,24.8433937 C43.49,24.8433937 41.247,27.0863937 41.247,29.8433937 C41.247,32.6003937 43.49,34.8433937 46.247,34.8433937 C49.004,34.8433937 51.247,32.6003937 51.247,29.8433937 L51.247,29.8433937 Z M24.764,19.5623937 C24.641,18.7433937 25.208,17.9803937 26.027,17.8593937 C26.847,17.7383937 27.609,18.3043937 27.73,19.1233937 C27.852,19.9423937 27.286,20.7053937 26.467,20.8263937 C25.647,20.9483937 24.885,20.3823937 24.764,19.5623937 L24.764,19.5623937 Z M31.229,15.6513937 C31.322,15.3953937 31.45,15.2593937 31.509,15.2333937 C34.712,13.8423937 43.665,10.6433937 46.443,9.65639372 L46.457,9.68439372 C44,11.3123937 36.064,16.5503937 33.027,18.2753937 C32.973,18.3073937 32.787,18.3283937 32.526,18.2483937 C32.138,18.1293937 31.62,17.7983937 31.332,17.2223937 C31.045,16.6463937 31.091,16.0333937 31.229,15.6513937 L31.229,15.6513937 Z M31.944,20.1613937 C32.257,20.2563937 32.565,20.3043937 32.859,20.3043937 C33.282,20.3043937 33.677,20.2073937 34.015,20.0143937 C37.673,17.9363937 47.869,11.1483937 48.302,10.8603937 C48.721,10.5813937 48.867,10.0323937 48.641,9.58139372 L47.838,7.97239372 C47.612,7.52139372 47.088,7.30839372 46.611,7.47539372 C46.121,7.64839372 34.569,11.7233937 30.712,13.3993937 C30.105,13.6633937 29.622,14.2203937 29.349,14.9673937 C28.985,15.9683937 29.057,17.1453937 29.543,18.1163937 C30.028,19.0863937 30.926,19.8513937 31.944,20.1613937 L31.944,20.1613937 Z M24.016,24.2693937 C24.63,24.4663937 25.035,24.9283937 25.211,25.2943937 C25.329,25.5403937 25.337,25.7273937 25.314,25.7863937 C24.066,29.0493937 20.088,37.6843937 18.848,40.3593937 L18.82,40.3503937 C19.375,37.4553937 21.185,28.1213937 22.078,24.7443937 C22.095,24.6823937 22.209,24.5353937 22.448,24.4043937 C22.805,24.2103937 23.404,24.0733937 24.016,24.2693937 L24.016,24.2693937 Z M21.489,22.6503937 C20.791,23.0313937 20.313,23.5943937 20.144,24.2333937 C19.069,28.2993937 16.786,40.3343937 16.689,40.8443937 C16.596,41.3393937 16.885,41.8273937 17.365,41.9823937 L19.077,42.5343937 C19.179,42.5663937 19.282,42.5823937 19.384,42.5823937 C19.764,42.5823937 20.122,42.3653937 20.29,42.0043937 C20.51,41.5343937 25.68,30.4303937 27.182,26.5003937 C27.418,25.8823937 27.358,25.1473937 27.014,24.4303937 C26.555,23.4703937 25.663,22.6983937 24.63,22.3653937 C23.596,22.0323937 22.422,22.1393937 21.489,22.6503937 L21.489,22.6503937 Z M7.393,7.28939372 C10.033,8.60239372 18.536,12.8553937 21.549,14.6243937 C21.604,14.6563937 21.715,14.8063937 21.776,15.0703937 C21.868,15.4663937 21.84,16.0813937 21.485,16.6193937 C21.131,17.1553937 20.576,17.4223937 20.176,17.4933937 C19.911,17.5403937 19.726,17.4983937 19.675,17.4593937 C16.867,15.3813937 9.62,9.22639372 7.377,7.31439372 L7.393,7.28939372 Z M18.485,19.0673937 C18.883,19.3613937 19.389,19.5143937 19.947,19.5143937 C20.134,19.5143937 20.327,19.4973937 20.524,19.4623937 C21.572,19.2773937 22.555,18.6263937 23.153,17.7213937 C23.752,16.8153937 23.966,15.6553937 23.723,14.6173937 C23.544,13.8433937 23.131,13.2323937 22.56,12.8983937 C18.933,10.7703937 7.956,5.33339372 7.49,5.10339372 C7.038,4.88039372 6.49,5.02839372 6.213,5.44839372 L5.222,6.94939372 C4.943,7.37039372 5.022,7.93239372 5.405,8.26039372 C5.8,8.59839372 15.103,16.5643937 18.485,19.0673937 L18.485,19.0673937 Z" id="Fill-5" fill="#232F3E"></path>
    </g>
</svg>