<?xml version="1.0" encoding="UTF-8"?>
<svg width="64px" height="64px" viewBox="0 0 64 64" version="1.1" xmlns="http://www.w3.org/2000/svg" xmlns:xlink="http://www.w3.org/1999/xlink">
    <!-- Generator: Sketch 64 (93537) - https://sketch.com -->
    <title>Icon-Industry/64/Financial-Services_64</title>
    <desc>Created with Sketch.</desc>
    <g id="Icon-Industry/64/Financial-Services_64" stroke="none" stroke-width="1" fill="none" fill-rule="evenodd">
        <path d="M4.176,60 L60.176,60 L60.176,58 L4.176,58 L4.176,60 Z M60.176,5 L60.176,13 L58.176,13 L58.176,7.13 L34.779,24.798 C34.39,25.093 33.84,25.062 33.485,24.723 L22.661,14.37 L5.352,30.237 L4,28.763 L22,12.263 C22.389,11.907 22.987,11.914 23.367,12.277 L34.252,22.689 L56.355,6 L51.176,6 L51.176,4 L59.176,4 C59.729,4 60.176,4.448 60.176,5 L60.176,5 Z M46.176,54 L54.176,54 L54.176,23 L46.176,23 L46.176,54 Z M55.176,56 C55.729,56 56.176,55.552 56.176,55 L56.176,22 C56.176,21.448 55.729,21 55.176,21 L45.176,21 C44.623,21 44.176,21.448 44.176,22 L44.176,55 C44.176,55.552 44.623,56 45.176,56 L55.176,56 Z M28.176,54 L36.176,54 L36.176,31 L28.176,31 L28.176,54 Z M37.176,56 C37.729,56 38.176,55.552 38.176,55 L38.176,30 C38.176,29.448 37.729,29 37.176,29 L27.176,29 C26.623,29 26.176,29.448 26.176,30 L26.176,55 C26.176,55.552 26.623,56 27.176,56 L37.176,56 Z M10.176,54 L18.176,54 L18.176,39 L10.176,39 L10.176,54 Z M19.176,56 C19.729,56 20.176,55.552 20.176,55 L20.176,38 C20.176,37.448 19.729,37 19.176,37 L9.176,37 C8.623,37 8.176,37.448 8.176,38 L8.176,55 C8.176,55.552 8.623,56 9.176,56 L19.176,56 Z" id="Financial-Services_Industry-Icon_64_Squid" fill="#232F3E"></path>
    </g>
</svg>