<?xml version="1.0" encoding="UTF-8"?>
<svg width="64px" height="64px" viewBox="0 0 64 64" version="1.1" xmlns="http://www.w3.org/2000/svg" xmlns:xlink="http://www.w3.org/1999/xlink">
    <title>Icon-Industry/64/Gaming_64</title>
    <g id="Icon-Industry/64/Gaming_64" stroke="none" stroke-width="1" fill="none" fill-rule="evenodd">
        <path d="M49.0002403,27 C50.1032403,27 51.0002403,26.103 51.0002403,25 C51.0002403,23.897 50.1032403,23 49.0002403,23 C47.8972403,23 47.0002403,23.897 47.0002403,25 C47.0002403,26.103 47.8972403,27 49.0002403,27 L49.0002403,27 Z M49.0002403,31 C47.8972403,31 47.0002403,31.897 47.0002403,33 C47.0002403,34.103 47.8972403,35 49.0002403,35 C50.1032403,35 51.0002403,34.103 51.0002403,33 C51.0002403,31.897 50.1032403,31 49.0002403,31 L49.0002403,31 Z M45.0002403,31 C46.1032403,31 47.0002403,30.103 47.0002403,29 C47.0002403,27.897 46.1032403,27 45.0002403,27 C43.8972403,27 43.0002403,27.897 43.0002403,29 C43.0002403,30.103 43.8972403,31 45.0002403,31 L45.0002403,31 Z M53.0002403,31 C54.1032403,31 55.0002403,30.103 55.0002403,29 C55.0002403,27.897 54.1032403,27 53.0002403,27 C51.8972403,27 51.0002403,27.897 51.0002403,29 C51.0002403,30.103 51.8972403,31 53.0002403,31 L53.0002403,31 Z M57.9992403,48.396 L57.9992403,35.306 C56.0072403,38.14 52.7192403,40 49.0002403,40 C47.4592403,40 45.9932403,39.679 44.6602403,39.104 C44.7792403,39.515 44.8982403,39.927 45.0142403,40.327 C47.4862403,48.908 49.0922403,53.763 53.3152403,53.763 C54.7002403,53.763 55.7532403,53.373 56.5342403,52.571 C58.0482403,51.019 58.0002403,48.422 57.9992403,48.396 L57.9992403,48.396 Z M18.9862403,40.327 C19.1022403,39.927 19.2212403,39.515 19.3402403,39.104 C18.0072403,39.679 16.5412403,40 15.0002403,40 C11.2802403,40 7.99224026,38.139 6.00024026,35.305 L6.00124026,48.368 C6.00024026,48.422 5.95224026,51.019 7.46624026,52.571 C8.24724026,53.373 9.30024026,53.763 10.6852403,53.763 C14.9082403,53.763 16.5142403,48.908 18.9862403,40.327 L18.9862403,40.327 Z M6.00024026,29 C6.00024026,33.962 10.0372403,38 15.0002403,38 C19.9632403,38 24.0002403,33.962 24.0002403,29 C24.0002403,24.038 19.9632403,20 15.0002403,20 C10.0372403,20 6.00024026,24.038 6.00024026,29 L6.00024026,29 Z M38.0002403,29 C38.0002403,26.786 38.6632403,24.727 39.7922403,23 L24.2082403,23 C25.3372403,24.727 26.0002403,26.786 26.0002403,29 C26.0002403,31.657 25.0532403,34.097 23.4792403,36 L40.5212403,36 C38.9472403,34.097 38.0002403,31.657 38.0002403,29 L38.0002403,29 Z M40.0002403,29 C40.0002403,33.962 44.0372403,38 49.0002403,38 C53.9562403,38 57.9882403,33.973 57.9992403,29.019 L57.9992403,29 L58.0002403,29 C58.0002403,24.038 53.9632403,20 49.0002403,20 C44.0372403,20 40.0002403,24.038 40.0002403,29 L40.0002403,29 Z M57.9792403,53.955 C56.8152403,55.155 55.2472403,55.763 53.3152403,55.763 C47.3812403,55.763 45.4882403,49.195 43.0922403,40.88 C42.8242403,39.95 42.5432403,38.984 42.2522403,38 L21.7482403,38 C21.4572403,38.984 21.1762403,39.95 20.9082403,40.88 C18.5122403,49.195 16.6192403,55.763 10.6852403,55.763 C8.75324026,55.763 7.18524026,55.155 6.02124026,53.955 C3.91924026,51.786 3.99724026,48.477 4.00124026,48.337 L4,29 C4,22.935 8.93524026,18 15.0002403,18 C17.9122403,18 20.5572403,19.146 22.5262403,21 L32.0002403,21 L32.0002403,11 C32.0002403,10.449 31.5522403,10 31.0002403,10 L30.0002403,10 C29.4482403,10 29.0002403,10.449 29.0002403,11 L29.0002403,14 C29.0002403,15.654 27.6542403,17 26.0002403,17 C24.3462403,17 23.0002403,15.654 23.0002403,14 L23.0002403,10 L25.0002403,10 L25.0002403,14 C25.0002403,14.551 25.4482403,15 26.0002403,15 C26.5522403,15 27.0002403,14.551 27.0002403,14 L27.0002403,11 C27.0002403,9.346 28.3462403,8 30.0002403,8 L31.0002403,8 C32.6542403,8 34.0002403,9.346 34.0002403,11 L34.0002403,21 L41.4742403,21 C43.4432403,19.146 46.0882403,18 49.0002403,18 C55.0652403,18 60.0004805,22.935 60.0004805,29 C60.0004805,29.007 59.9992403,29.013 59.9992403,29.019 L59.9992403,48.368 C60.0032403,48.477 60.0812403,51.786 57.9792403,53.955 L57.9792403,53.955 Z M14.0002403,30 L11.0002403,30 L11.0002403,28 L14.0002403,28 L14.0002403,25 L16.0002403,25 L16.0002403,28 L19.0002403,28 L19.0002403,30 L16.0002403,30 L16.0002403,33 L14.0002403,33 L14.0002403,30 Z" id="Fill-5" fill="#232F3E"></path>
    </g>
</svg>