<?xml version="1.0" encoding="UTF-8"?>
<svg width="64px" height="64px" viewBox="0 0 64 64" version="1.1" xmlns="http://www.w3.org/2000/svg" xmlns:xlink="http://www.w3.org/1999/xlink">
    <!-- Generator: Sketch 64 (93537) - https://sketch.com -->
    <title>Icon-Industry/64/Life-Sciences_64</title>
    <desc>Created with Sketch.</desc>
    <g id="Icon-Industry/64/Life-Sciences_64" stroke="none" stroke-width="1" fill="none" fill-rule="evenodd">
        <path d="M14,58.0002964 L49,58.0002964 L49,56.0002964 L14,56.0002964 L14,58.0002964 Z M22,54.0002964 L34,54.0002964 L34,51.0002964 L22,51.0002964 L22,54.0002964 Z M38.61,27.2672964 C37.043,27.2672964 35.769,25.9932964 35.769,24.4262964 C35.769,22.8592964 37.043,21.5842964 38.61,21.5842964 C40.178,21.5842964 41.452,22.8592964 41.452,24.4262964 C41.452,25.9932964 40.178,27.2672964 38.61,27.2672964 L38.61,27.2672964 Z M34.35,36.1122964 L27.894,34.3832964 L27.376,36.3142964 L33.832,38.0442964 L33.023,41.0602964 L21.35,37.9322964 L22.157,34.9162964 L24.902,35.6512964 L25.42,33.7202964 L22.675,32.9842964 L28.786,10.1782964 L31.53,10.9132964 C31.531,10.9132964 31.531,10.9142964 31.531,10.9142964 L33.354,11.4022964 L40.46,13.3062964 L38.773,19.6012964 C38.719,19.5992964 38.666,19.5842964 38.61,19.5842964 C35.94,19.5842964 33.769,21.7562964 33.769,24.4262964 C33.769,26.2712964 34.818,27.8602964 36.342,28.6762964 L34.35,36.1122964 Z M33.822,6.22529639 L38.075,7.36429639 L37.268,10.3802964 L34.112,9.53529639 L33.015,9.24129639 L33.822,6.22529639 Z M50,54.0002964 L36,54.0002964 L36,51.0002964 L38.61,51.0002964 L38.61,51.0362964 C46.223,51.0362964 52.416,44.8432964 52.416,37.2312964 C52.416,31.4082964 48.837,26.3122964 43.439,24.3042964 C43.393,22.4442964 42.293,20.8542964 40.715,20.0852964 L42.65,12.8582964 C42.793,12.3242964 42.477,11.7762964 41.943,11.6332964 L39.199,10.8982964 L40.266,6.91629639 C40.408,6.38229639 40.092,5.83429639 39.559,5.69129639 L33.374,4.03429639 C33.118,3.96529639 32.845,4.00129639 32.615,4.13429639 C32.386,4.26729639 32.218,4.48529639 32.149,4.74129639 L31.083,8.72329639 L28.338,7.98729639 C28.082,7.91729639 27.809,7.95429639 27.579,8.08729639 C27.35,8.22029639 27.182,8.43829639 27.113,8.69429639 L19.159,38.3802964 C19.017,38.9132964 19.333,39.4612964 19.866,39.6042964 L33.472,43.2502964 C33.557,43.2732964 33.644,43.2852964 33.73,43.2852964 C33.904,43.2852964 34.077,43.2392964 34.23,43.1512964 C34.46,43.0182964 34.628,42.8002964 34.696,42.5432964 L38.263,29.2322964 C38.38,29.2402964 38.491,29.2672964 38.61,29.2672964 C40.616,29.2672964 42.34,28.0412964 43.074,26.2992964 C47.504,28.0972964 50.416,32.3712964 50.416,37.2312964 C50.416,43.6092964 45.328,48.8092964 39,49.0172964 L39,49.0002964 L16,49.0002964 L16,51.0002964 L20,51.0002964 L20,54.0002964 L13,54.0002964 C12.447,54.0002964 12,54.4482964 12,55.0002964 L12,59.0002964 C12,59.5522964 12.447,60.0002964 13,60.0002964 L50,60.0002964 C50.553,60.0002964 51,59.5522964 51,59.0002964 L51,55.0002964 C51,54.4482964 50.553,54.0002964 50,54.0002964 L50,54.0002964 Z" id="Life-Sciences_Industry-Icon_64_Squid" fill="#232F3E"></path>
    </g>
</svg>