<?xml version="1.0" encoding="UTF-8"?>
<svg width="64px" height="64px" viewBox="0 0 64 64" version="1.1" xmlns="http://www.w3.org/2000/svg" xmlns:xlink="http://www.w3.org/1999/xlink">
    <!-- Generator: Sketch 64 (93537) - https://sketch.com -->
    <title>Icon-Industry/64/Manufacturing_64</title>
    <desc>Created with Sketch.</desc>
    <g id="Icon-Industry/64/Manufacturing_64" stroke="none" stroke-width="1" fill="none" fill-rule="evenodd">
        <path d="M4,57 L35,57 L35,55 L4,55 L4,57 Z M26,51 L37,51 L37,49 L26,49 L26,51 Z M4,51 L9,51 L9,49 L4,49 L4,51 Z M14,49 L22,49 L22,41 L14,41 L14,49 Z M23,51 C23.553,51 24,50.552 24,50 L24,40 C24,39.448 23.553,39 23,39 L13,39 C12.447,39 12,39.448 12,40 L12,50 C12,50.552 12.447,51 13,51 L23,51 Z M40.297,58 L42.297,42 L44,42 L54,42 L55.867,42 L57.867,58 L40.297,58 Z M47.894,25.759 C48.402,25.915 48.941,26 49.5,26 C49.732,26 49.96,25.981 50.185,25.953 L52.797,40 L45.206,40 L47.894,25.759 Z M49.5,17 C51.43,17 53,18.57 53,20.5 C53,22.43 51.43,24 49.5,24 C47.57,24 46,22.43 46,20.5 C46,18.57 47.57,17 49.5,17 L49.5,17 Z M18.5,6 C19.327,6 20,6.673 20,7.5 C20,8.327 19.327,9 18.5,9 C17.673,9 17,8.327 17,7.5 C17,6.673 17.673,6 18.5,6 L18.5,6 Z M45.586,16.643 C44.978,17.26 44.513,18.018 44.248,18.865 L21.143,9.769 C21.657,9.17 21.979,8.404 21.994,7.558 L45.586,16.643 Z M57.742,40.876 C57.68,40.375 57.254,40 56.75,40 L54.831,40 L52.105,25.342 C53.827,24.411 55,22.59 55,20.5 C55,17.467 52.532,15 49.5,15 C48.866,15 48.26,15.113 47.693,15.312 L21.063,5.135 C20.424,4.442 19.516,4 18.5,4 C16.57,4 15,5.57 15,7.5 C15,8.891 15.822,10.085 17,10.649 L17,32.323 L7.629,36.071 C7.249,36.224 7,36.591 7,37 L7,43 L9,43 L9,37.677 L18,34.077 L27,37.677 L27,43 L29,43 L29,37 C29,36.591 28.751,36.224 28.371,36.071 L19,32.323 L19,11.075 L44.021,20.925 C44.141,22.476 44.902,23.848 46.045,24.773 L43.171,40 L41.414,40 C40.91,40 40.484,40.375 40.422,40.876 L38.172,58.876 C38.136,59.161 38.225,59.447 38.414,59.662 C38.604,59.877 38.877,60 39.164,60 L59,60 C59.287,60 59.56,59.877 59.75,59.662 C59.939,59.447 60.028,59.161 59.992,58.876 L57.742,40.876 Z" id="Manufacturing_Industry_Icon_64_Squid" fill="#232F3E"></path>
    </g>
</svg>