<?xml version="1.0" encoding="UTF-8"?>
<svg width="64px" height="64px" viewBox="0 0 64 64" version="1.1" xmlns="http://www.w3.org/2000/svg" xmlns:xlink="http://www.w3.org/1999/xlink">
    <!-- Generator: Sketch 64 (93537) - https://sketch.com -->
    <title>Icon-Industry/64/Media-Entertainment</title>
    <desc>Created with Sketch.</desc>
    <g id="Icon-Industry/64/Media-Entertainment" stroke="none" stroke-width="1" fill="none" fill-rule="evenodd">
        <path d="M44.5,53.833 C45.881,53.833 47,53.086 47,52.166 C47,52.109 46.983,52.055 46.975,52 L47,52 L47,45 L54,45 L54,50.7 C53.838,50.678 53.671,50.666 53.5,50.666 C52.119,50.666 51,51.413 51,52.333 C51,53.253 52.119,54 53.5,54 C54.795,54 55.848,53.34 55.975,52.5 L56,52.5 L56,44 C56,43.447 55.553,43 55,43 L46,43 C45.447,43 45,43.447 45,44 L45,50.533 C44.838,50.511 44.671,50.5 44.5,50.5 C43.119,50.5 42,51.246 42,52.166 C42,53.086 43.119,53.833 44.5,53.833 L44.5,53.833 Z M19,9.956 L22,9.956 L22,7.999 L19,7.999 L19,9.956 Z M14,9.956 L17,9.956 L17,7.999 L14,7.999 L14,9.956 Z M9,9.956 L12,9.956 L12,7.999 L9,7.999 L9,9.956 Z M39,58 L58,58 L58,39 L39,39 L39,58 Z M60,38 L60,59 C60,59.552 59.553,60 59,60 L38,60 C37.447,60 37,59.552 37,59 L37,38 C37,37.447 37.447,37 38,37 L59,37 C59.553,37 60,37.447 60,38 L60,38 Z M6,12 L54,12 L54,5.957 L6,5.957 L6,12 Z M6,45 L35,45 L34.999,47 L4.999,47 C4.447,46.999 4,46.508 4,45.956 L4,13.956 L4,11.956 L4,5 C4,4.447 4.447,4 5,4 L55,4 C55.553,4 56,4.447 56,5 L56,35 L54,35 L54,13.956 L6,13.956 L6,45 Z M31.64,28.822 L26,25.288 L26,32.358 L31.64,28.822 Z M34.526,28.825 C34.526,29.17 34.348,29.49 34.056,29.673 L25.532,35.014 C25.369,35.116 25.185,35.167 25,35.167 C24.834,35.167 24.667,35.126 24.517,35.042 C24.197,34.867 24,34.531 24,34.167 L24,23.481 C24,23.117 24.197,22.782 24.516,22.606 C24.834,22.43 25.222,22.44 25.531,22.634 L34.058,27.977 C34.35,28.16 34.526,28.48 34.526,28.825 L34.526,28.825 Z M38.06,28.824 C38.06,23.49 33.72,19.15 28.385,19.15 C23.051,19.15 18.711,23.49 18.711,28.824 C18.711,34.159 23.051,38.499 28.385,38.499 C29.509,38.499 30.589,38.309 31.595,37.935 L32.292,39.81 C31.062,40.267 29.748,40.499 28.385,40.499 C21.948,40.499 16.711,35.261 16.711,28.824 C16.711,22.387 21.948,17.15 28.385,17.15 C34.822,17.15 40.06,22.387 40.06,28.824 C40.06,30.186 39.828,31.5 39.371,32.73 L37.496,32.034 C37.87,31.027 38.06,29.947 38.06,28.824 L38.06,28.824 Z" id="Media-Entertainment_Industry_Icon_64_Squid" fill="#232F3E"></path>
    </g>
</svg>