<?xml version="1.0" encoding="UTF-8"?>
<svg width="64px" height="64px" viewBox="0 0 64 64" version="1.1" xmlns="http://www.w3.org/2000/svg" xmlns:xlink="http://www.w3.org/1999/xlink">
    <title>Icon-Industry/64/Advertising_64</title>
    <g id="Icon-Industry/64/Advertising_64" stroke="none" stroke-width="1" fill="none" fill-rule="evenodd">
        <path d="M40.4502,49.4238 C39.8702,47.3758 38.2522,41.7378 37.8022,40.8948 C37.7432,40.7848 37.7402,40.6488 37.7962,40.5568 C37.8802,40.4158 38.1062,40.3948 38.2342,40.3948 C38.5962,40.3948 39.0752,41.1468 39.2592,41.6828 C39.2812,41.7528 39.3122,41.8198 39.3502,41.8828 L42.1432,46.5158 C42.3762,46.9008 42.8362,47.0858 43.2672,46.9638 C43.7002,46.8428 44.0002,46.4488 44.0002,45.9998 L44.0002,32.4108 C44.0002,32.0188 44.2232,31.6688 44.5302,31.5808 C44.6072,31.5578 44.6972,31.5458 44.7252,31.5658 C44.8362,31.6488 45.0002,32.0228 45.0002,32.5568 L44.9702,40.9968 L46.9702,41.0038 L46.9792,38.5038 C47.9822,38.7018 48.0002,39.2408 48.0002,39.5938 L48.0002,42.9998 L50.0002,42.9998 L50.0002,39.5938 C50.0002,39.4758 49.9942,39.3388 49.9772,39.1898 C50.8472,39.4798 51.0002,40.0628 51.0002,40.6748 L51.0002,43.9998 L53.0002,43.9998 L53.0002,40.8418 C53.4952,40.7898 53.9942,40.8188 54.3202,41.0728 C55.0002,41.6038 55.0002,43.1038 55.0002,43.9998 L55.0002,47.1688 C55.0002,51.4738 54.5482,52.8828 54.2772,53.7248 C54.1352,54.1688 54.0002,54.5878 54.0002,55.1518 L54.0002,55.9998 L44.7742,55.9998 L44.7742,54.7378 C44.7742,54.4958 44.6862,54.2608 44.5262,54.0788 L40.4502,49.4238 Z M56.0002,56.0058 L56.0002,55.1518 C56.0002,54.9108 56.0552,54.7278 56.1812,54.3368 C56.4872,53.3828 57.0002,51.7868 57.0002,47.1688 L57.0002,43.9998 C57.0002,42.7388 57.0002,40.6288 55.5512,39.4968 C54.8032,38.9128 53.7942,38.7228 52.5712,38.8898 C51.9902,37.8038 50.8312,37.1378 49.1772,37.0208 C49.1092,37.0158 48.8832,37.0118 48.6222,37.0078 C48.2102,36.7588 47.6732,36.5718 46.9862,36.4828 L47.0002,32.5598 C47.0002,31.4248 46.6092,30.4808 45.9292,29.9678 C45.3892,29.5618 44.6972,29.4508 43.9772,29.6588 C42.8132,29.9938 42.0002,31.1258 42.0002,32.4108 L42.0002,42.4038 L41.1152,40.9358 C40.9102,40.3858 40.0432,38.3948 38.2342,38.3948 C37.2972,38.3948 36.5122,38.8078 36.0802,39.5278 C35.6642,40.2228 35.6472,41.1088 36.0372,41.8368 C36.2502,42.2508 37.0942,45.0098 37.9622,47.9998 L8.0002,47.9998 L8.0002,44.9998 L6.0002,44.9998 L6.0002,48.9998 C6.0002,49.5518 6.4472,49.9998 7.0002,49.9998 L38.5352,49.9998 C38.5532,50.0618 38.5702,50.1238 38.5882,50.1848 C38.6282,50.3278 38.6992,50.4598 38.7982,50.5718 L42.7742,55.1138 L42.7742,56.0148 C42.4102,56.0488 41.9422,56.1628 41.5532,56.5498 C41.3012,56.7998 41.0002,57.2598 41.0002,58.0278 L41.0002,59.9998 L43.0002,59.9998 L43.0002,58.0278 L43.0002,58.0028 C43.0642,57.9998 43.1442,57.9998 43.2212,57.9998 L55.8222,57.9998 C55.8662,57.9978 55.9352,57.9988 56.0002,58.0028 L56.0002,58.0278 L56.0002,59.9998 L58.0002,59.9998 L58.0002,58.0278 C58.0002,57.2628 57.6992,56.8028 57.4472,56.5528 C56.9832,56.0918 56.3932,56.0178 56.0002,56.0058 L56.0002,56.0058 Z M15.2862,32.7218 L17.0542,34.2358 C17.6192,34.8018 18.0282,35.2108 18.6702,35.2108 C19.3112,35.2108 19.7202,34.8018 20.2282,34.2888 L22.1022,32.6818 L30.2902,40.9998 L7.1372,40.9998 L15.2862,32.7218 Z M13.7632,31.4168 L6.0002,39.3038 L6.0002,24.7648 L13.7632,31.4168 Z M18.8712,32.8228 C18.8042,32.8888 18.7342,32.9588 18.6692,33.0228 C18.5912,32.9468 18.5042,32.8608 18.4112,32.7698 L7.0122,22.9998 L30.3262,22.9998 L18.8712,32.8228 Z M23.6252,31.3768 L32.0002,24.1988 L32.0002,39.8848 L23.6252,31.3768 Z M31.0002,42.9998 C32.6542,42.9998 34.0002,41.6538 34.0002,39.9998 L34.0002,23.9998 C34.0002,22.3458 32.6542,20.9998 31.0002,20.9998 L7.0002,20.9998 C5.3462,20.9998 4.0002,22.3458 4.0002,23.9998 L4.0002,39.9998 C4.0002,41.6538 5.3462,42.9998 7.0002,42.9998 L31.0002,42.9998 Z M21.0002,9.9998 L24.0002,9.9998 L24.0002,7.9998 L21.0002,7.9998 L21.0002,9.9998 Z M16.0002,9.9998 L19.0002,9.9998 L19.0002,7.9998 L16.0002,7.9998 L16.0002,9.9998 Z M11.0002,9.9998 L14.0002,9.9998 L14.0002,7.9998 L11.0002,7.9998 L11.0002,9.9998 Z M8.0002,11.9998 L57.0002,11.9998 L57.0002,5.9998 L8.0002,5.9998 L8.0002,11.9998 Z M58.0002,3.9998 L7.0002,3.9998 C6.4472,3.9998 6.0002,4.4478 6.0002,4.9998 L6.0002,18.9998 L8.0002,18.9998 L8.0002,13.9998 L57.0002,13.9998 L57.0002,39.9998 L59.0002,39.9998 L59.0002,13.9998 L59.0002,11.9998 L59.0002,4.9998 C59.0002,4.4478 58.5532,3.9998 58.0002,3.9998 L58.0002,3.9998 Z" id="Fill-1" fill="#232F3E"></path>
    </g>
</svg>