<?xml version="1.0" encoding="UTF-8"?>
<svg width="64px" height="64px" viewBox="0 0 64 64" version="1.1" xmlns="http://www.w3.org/2000/svg" xmlns:xlink="http://www.w3.org/1999/xlink">
    <!-- Generator: Sketch 64 (93537) - https://sketch.com -->
    <title>Icon-Industry/64/Public-Sector_64</title>
    <desc>Created with Sketch.</desc>
    <g id="Icon-Industry/64/Public-Sector_64" stroke="none" stroke-width="1" fill="none" fill-rule="evenodd">
        <path d="M49,48.9999676 L53,48.9999676 L53,33.9999676 L49,33.9999676 L49,48.9999676 Z M48,52.9999676 L54,52.9999676 L54,50.9999676 L48,50.9999676 L48,52.9999676 Z M6,57.9999676 L58,57.9999676 L58,54.9999676 L6,54.9999676 L6,57.9999676 Z M10,52.9999676 L16,52.9999676 L16,50.9999676 L10,50.9999676 L10,52.9999676 Z M11,48.9999676 L15,48.9999676 L15,33.9999676 L11,33.9999676 L11,48.9999676 Z M10,31.9999676 L16,31.9999676 L16,29.9999676 L10,29.9999676 L10,31.9999676 Z M6,27.9999676 L6,25.7869676 L32,17.0549676 L58,25.7869676 L58,27.9999676 L6,27.9999676 Z M33,6.21996758 L41,7.81996758 L41,9.10196758 L33,9.95796758 L33,6.21996758 Z M48,31.9999676 L54,31.9999676 L54,29.9999676 L48,29.9999676 L48,31.9999676 Z M35,52.9999676 L41,52.9999676 L41,50.9999676 L35,50.9999676 L35,52.9999676 Z M35,31.9999676 L41,31.9999676 L41,29.9999676 L35,29.9999676 L35,31.9999676 Z M36,48.9999676 L40,48.9999676 L40,33.9999676 L36,33.9999676 L36,48.9999676 Z M30,48.9999676 L30,33.9999676 C30.553,33.9999676 31,33.5519676 31,32.9999676 L31,29.9999676 L33,29.9999676 L33,32.9999676 C33,33.5519676 33.447,33.9999676 34,33.9999676 L34,48.9999676 C33.447,48.9999676 33,49.4479676 33,49.9999676 L33,52.9999676 L31,52.9999676 L31,49.9999676 C31,49.4479676 30.553,48.9999676 30,48.9999676 L30,48.9999676 Z M23,52.9999676 L29,52.9999676 L29,50.9999676 L23,50.9999676 L23,52.9999676 Z M23,31.9999676 L29,31.9999676 L29,29.9999676 L23,29.9999676 L23,31.9999676 Z M24,48.9999676 L28,48.9999676 L28,33.9999676 L24,33.9999676 L24,48.9999676 Z M17,48.9999676 L17,33.9999676 C17.553,33.9999676 18,33.5519676 18,32.9999676 L18,29.9999676 L21,29.9999676 L21,32.9999676 C21,33.5519676 21.447,33.9999676 22,33.9999676 L22,48.9999676 C21.447,48.9999676 21,49.4479676 21,49.9999676 L21,52.9999676 L18,52.9999676 L18,49.9999676 C18,49.4479676 17.553,48.9999676 17,48.9999676 L17,48.9999676 Z M47,48.9999676 C46.447,48.9999676 46,49.4479676 46,49.9999676 L46,52.9999676 L43,52.9999676 L43,49.9999676 C43,49.4479676 42.553,48.9999676 42,48.9999676 L42,33.9999676 C42.553,33.9999676 43,33.5519676 43,32.9999676 L43,29.9999676 L46,29.9999676 L46,32.9999676 C46,33.5519676 46.447,33.9999676 47,33.9999676 L47,48.9999676 Z M56,32.9999676 L56,29.9999676 L59,29.9999676 C59.553,29.9999676 60,29.6189676 60,29.0669676 L60,25.0679676 C60,24.6379676 59.726,24.2569676 59.318,24.1199676 L33,15.2809676 L33,11.9699676 L42.106,10.9939676 C42.614,10.9399676 43,10.5109676 43,9.99996758 L43,6.99996758 C43,6.52296758 42.663,6.11296758 42.196,6.01996758 L32.196,4.01996758 C31.901,3.95996758 31.598,4.03696758 31.366,4.22696758 C31.135,4.41696758 31,4.69996758 31,4.99996758 L31,9.99996758 L31,11.0709676 L31,15.2809676 L4.682,24.1199676 C4.274,24.2569676 4,24.6379676 4,25.0679676 L4,29.0669676 C4,29.6189676 4.447,29.9999676 5,29.9999676 L8,29.9999676 L8,32.9999676 C8,33.5519676 8.447,33.9999676 9,33.9999676 L9,48.9999676 C8.447,48.9999676 8,49.4479676 8,49.9999676 L8,52.9999676 L5,52.9999676 C4.447,52.9999676 4,53.4479676 4,53.9999676 L4,58.9999676 C4,59.5519676 4.447,59.9999676 5,59.9999676 L59,59.9999676 C59.553,59.9999676 60,59.5519676 60,58.9999676 L60,53.9999676 C60,53.4479676 59.553,52.9999676 59,52.9999676 L56,52.9999676 L56,49.9999676 C56,49.4479676 55.553,48.9999676 55,48.9999676 L55,33.9999676 C55.553,33.9999676 56,33.5519676 56,32.9999676 L56,32.9999676 Z" id="Public-Sector_Industry-Icon_64_Squid" fill="#232F3E"></path>
    </g>
</svg>