<?xml version="1.0" encoding="UTF-8"?>
<svg width="64px" height="64px" viewBox="0 0 64 64" version="1.1" xmlns="http://www.w3.org/2000/svg" xmlns:xlink="http://www.w3.org/1999/xlink">
    <!-- Generator: Sketch 64 (93537) - https://sketch.com -->
    <title>Icon-Industry/64/Telecommunications_64</title>
    <desc>Created with Sketch.</desc>
    <g id="Icon-Industry/64/Telecommunications_64" stroke="none" stroke-width="1" fill="none" fill-rule="evenodd">
        <path d="M57.8,55.0283751 C57.8,53.9253751 56.903,53.0283751 55.8,53.0283751 C54.697,53.0283751 53.8,53.9253751 53.8,55.0283751 C53.8,56.1313751 54.697,57.0283751 55.8,57.0283751 C56.903,57.0283751 57.8,56.1313751 57.8,55.0283751 L57.8,55.0283751 Z M44.247,50.0283751 L50.8,50.0283751 L50.8,43.4683751 C50.6,43.3053751 50.385,43.1743751 50.21,43.1743751 L50.209,43.1743751 C49.702,43.1763751 48.771,44.1243751 47.693,45.2213751 L46.416,46.5053751 C45.13,47.7833751 44.021,48.8873751 44.0199904,49.5073751 C44.019,49.6553751 44.096,49.8293751 44.247,50.0283751 L44.247,50.0283751 Z M45.76,36.6873751 C45.81,36.6363751 45.81,36.5243751 45.76,36.4743751 L26.42,17.1343751 C26.391,17.1053751 26.352,17.0903751 26.314,17.0903751 C26.276,17.0903751 26.237,17.1053751 26.207,17.1343751 L18.157,25.1853751 C18.099,25.2433751 18.099,25.3393751 18.157,25.3973751 L37.497,44.7373751 C37.557,44.7963751 37.652,44.7943751 37.709,44.7373751 L45.76,36.6873751 Z M30.016,46.8923751 L25.926,42.7173751 L16.754,51.8043751 L20.843,55.9793751 L20.929,55.9793751 L30.016,46.8923751 Z M20.279,37.1553751 L16.19,32.9813751 L7.017,42.0683751 L11.107,46.2423751 L11.192,46.2423751 L20.279,37.1553751 Z M33.893,15.1923751 L37.973,19.3663751 L38.068,19.3663751 L47.261,10.1743751 L43.181,5.99937506 L33.893,15.1923751 Z M43.629,24.9283751 L47.71,29.1033751 L47.718,29.1033751 C47.74,29.1033751 47.803,29.1043751 47.804,29.1033751 L56.997,19.9103751 L52.917,15.7363751 L43.629,24.9283751 Z M59.8,55.0283751 C59.8,57.2343751 58.006,59.0283751 55.8,59.0283751 C53.594,59.0283751 51.8,57.2343751 51.8,55.0283751 C51.8,54.2763751 52.022,53.5793751 52.384,52.9773751 L51.499,52.0283751 L43.8,52.0283751 C43.534,52.0283751 43.28,51.9233751 43.093,51.7353751 C42.369,51.0113751 42.018,50.2823751 42.02,49.5053751 C42.022,48.0633751 43.196,46.8873751 44.975,45.1193751 L42.545,42.7303751 L39.123,46.1523751 L39.123,46.1523751 C38.704,46.5703751 38.154,46.7803751 37.604,46.7803751 C37.053,46.7803751 36.502,46.5703751 36.083,46.1523751 L32.087,42.1553751 L30.14,44.1023751 L31.43,45.3923751 C32.233,46.1953751 32.234,47.5023751 31.43,48.3063751 L22.343,57.3933751 C21.942,57.7953751 21.413,57.9963751 20.886,57.9963751 C20.359,57.9963751 19.83,57.7953751 19.429,57.3933751 L15.34,53.3043751 C14.536,52.5013751 14.536,51.1943751 15.34,50.3903751 L24.427,41.3033751 C25.231,40.4993751 26.538,40.5013751 27.34,41.3033751 L28.726,42.6893751 L30.673,40.7413751 L22.087,32.1553751 L20.14,34.1033751 L21.693,35.6563751 C22.496,36.4593751 22.496,37.7663751 21.693,38.5703751 L12.606,47.6563751 C12.204,48.0583751 11.677,48.2593751 11.15,48.2593751 C10.621,48.2593751 10.094,48.0583751 9.693,47.6563751 L5.603,43.5673751 C4.799,42.7643751 4.799,41.4573751 5.603,40.6533751 L14.69,31.5673751 C15.492,30.7633751 16.801,30.7633751 17.604,31.5673751 L18.726,32.6893751 L20.673,30.7413751 L16.743,26.8113751 C15.904,25.9733751 15.904,24.6093751 16.743,23.7713751 L19.973,20.5413751 L16.278,16.9083751 L13.728,19.4583751 C13.342,19.8433751 12.826,20.0323751 12.29,20.0323751 C11.661,20.0323751 11.003,19.7713751 10.492,19.2603751 L9.094,17.8623751 C8.148,16.9163751 8.059,15.4643751 8.897,14.6273751 L10.165,13.3583751 L11.579,14.7723751 L10.311,16.0413751 C10.303,16.0753751 10.328,16.2683751 10.508,16.4483751 L11.906,17.8463751 C12.084,18.0243751 12.275,18.0513751 12.33,18.0323751 L19.066,11.2913751 C19.074,11.2563751 19.048,11.0643751 18.868,10.8833751 L17.47,9.48637506 C17.289,9.30537506 17.1,9.28037506 17.047,9.29937506 L15.813,10.5383751 L14.399,9.12437506 L15.65,7.87437506 C16.078,7.44537506 16.684,7.23737506 17.334,7.30837506 C17.904,7.37037506 18.455,7.64137506 18.885,8.07237506 L20.282,9.46937506 C20.713,9.90037506 20.984,10.4503751 21.046,11.0203751 C21.115,11.6623751 20.909,12.2763751 20.48,12.7053751 L17.692,15.4933751 L21.388,19.1263751 L24.793,15.7203751 C25.631,14.8823751 26.996,14.8823751 27.834,15.7203751 L31.764,19.6503751 L33.596,17.8183751 L32.479,16.7003751 C31.674,15.8953751 31.674,14.5843751 32.479,13.7783751 L41.672,4.58537506 C42.451,3.80537506 43.814,3.80437506 44.595,4.58537506 L48.675,8.66537506 C49.48,9.47137506 49.48,10.7823751 48.676,11.5873751 L39.482,20.7803751 C39.078,21.1833751 38.549,21.3853751 38.02,21.3853751 C37.491,21.3853751 36.962,21.1833751 36.559,20.7803751 L35.01,19.2323751 L33.178,21.0643751 L41.764,29.6503751 L43.596,27.8183751 L42.215,26.4373751 C41.41,25.6323751 41.41,24.3213751 42.214,23.5153751 L51.408,14.3213751 C52.215,13.5163751 53.525,13.5163751 54.331,14.3213751 L58.411,18.4023751 C59.216,19.2083751 59.216,20.5193751 58.412,21.3243751 L49.218,30.5173751 L49.219,30.5173751 C48.828,30.9073751 48.31,31.1233751 47.757,31.1233751 C47.204,31.1233751 46.686,30.9073751 46.295,30.5173751 L45.01,29.2323751 L43.178,31.0643751 L47.174,35.0603751 C47.58,35.4663751 47.804,36.0073751 47.804,36.5813751 C47.804,37.1553751 47.58,37.6953751 47.174,38.1013751 L43.959,41.3163751 L46.384,43.7003751 C47.879,42.1803751 48.896,41.1803751 50.2,41.1743751 C51.253,41.2133751 52.012,41.8263751 52.507,42.3213751 C52.695,42.5083751 52.8,42.7633751 52.8,43.0283751 L52.8,50.4903751 L53.814,51.5773751 C54.402,51.2373751 55.073,51.0283751 55.8,51.0283751 C58.006,51.0283751 59.8,52.8223751 59.8,55.0283751 L59.8,55.0283751 Z M28.507,23.3213751 L40.507,35.3213751 L39.093,36.7353751 L27.093,24.7353751 L28.507,23.3213751 Z" id="Telecommunications_Industry-Icon_64_Squid" fill="#232F3E"></path>
    </g>
</svg>