<?xml version="1.0" encoding="UTF-8"?>
<svg width="64px" height="64px" viewBox="0 0 64 64" version="1.1" xmlns="http://www.w3.org/2000/svg" xmlns:xlink="http://www.w3.org/1999/xlink">
    <!-- Generator: Sketch 64 (93537) - https://sketch.com -->
    <title>Icon-Industry/64/Travel-Hospitality_64</title>
    <desc>Created with Sketch.</desc>
    <g id="Icon-Industry/64/Travel-Hospitality_64" stroke="none" stroke-width="1" fill="none" fill-rule="evenodd">
        <path d="M23,14 L23,7.41 C23,7.188 23.232,7 23.508,7 L40.492,7 C40.768,7 41,7.188 41,7.41 L41,14 L23,14 Z M16,51 L7,51 C6.448,51 6,50.551 6,50 L6,17 C6,16.449 6.448,16 7,16 L16,16 L16,51 Z M57,14 L43,14 L43,7.41 C43,6.081 41.875,5 40.492,5 L23.508,5 C22.125,5 21,6.081 21,7.41 L21,14 L7,14 C5.346,14 4,15.346 4,17 L4,50 C4,51.654 5.346,53 7,53 L35,53 L35,51 L18,51 L18,16 L46,16 L46,29 L48,29 L48,16 L57,16 C57.552,16 58,16.449 58,17 L58,39 L60,39 L60,17 C60,15.346 58.654,14 57,14 L57,14 Z M46.904,52.667 C47.09,52.667 47.274,52.718 47.437,52.82 L53.414,56.587 L51.678,49.74 C51.583,49.367 51.712,48.972 52.008,48.726 L57.437,44.207 L50.389,43.741 C50.004,43.716 49.668,43.472 49.525,43.114 L46.904,36.555 L44.284,43.114 C44.142,43.472 43.806,43.716 43.421,43.741 L36.373,44.207 L41.802,48.726 C42.098,48.972 42.227,49.367 42.132,49.74 L40.396,56.587 L46.371,52.82 C46.534,52.718 46.719,52.667 46.904,52.667 L46.904,52.667 Z M38.812,59.768 C38.604,59.768 38.398,59.704 38.224,59.577 C37.893,59.336 37.741,58.919 37.842,58.522 L40.038,49.859 L33.17,44.142 C32.855,43.88 32.732,43.454 32.858,43.064 C32.985,42.675 33.336,42.403 33.744,42.375 L42.661,41.787 L45.976,33.488 C46.127,33.108 46.495,32.859 46.904,32.859 C47.313,32.859 47.681,33.108 47.833,33.488 L51.148,41.787 L60.065,42.375 C60.474,42.403 60.824,42.675 60.951,43.064 C61.077,43.454 60.954,43.88 60.64,44.142 L53.771,49.859 L55.968,58.522 C56.068,58.919 55.917,59.336 55.586,59.577 C55.255,59.817 54.811,59.832 54.465,59.614 L46.904,54.849 L39.345,59.614 C39.182,59.717 38.996,59.768 38.812,59.768 L38.812,59.768 Z" id="Travel-Hospitality_Industry-Icon_64_Squid" fill="#232F3E"></path>
    </g>
</svg>