<?xml version="1.0" encoding="utf-8"?>

<svg version="1.1" id="Livello_1" xmlns="http://www.w3.org/2000/svg" xmlns:xlink="http://www.w3.org/1999/xlink" x="0px" y="0px"
	 viewBox="0 0 330.6 87.2" style="enable-background:new 0 0 330.6 87.2;" xml:space="preserve">
<style type="text/css">
	.st0{fill:url(#SVGID_1_);}
	.st1{fill:url(#SVGID_00000173159821795078982680000001176978297730447263_);}
	.st2{fill:url(#SVGID_00000166652207026766810860000000210394839819606709_);}
	.st3{fill:url(#SVGID_00000086672830459217441770000018335336499112177030_);}
	.st4{fill:url(#SVGID_00000103968185474090330620000008646252028385969828_);}
	.st5{fill:url(#SVGID_00000098181817748897988520000000092076741299184797_);}
</style>
<g>
	<g>
		<linearGradient id="SVGID_1_" gradientUnits="userSpaceOnUse" x1="-6.4529" y1="106.2416" x2="335.7581" y2="16.4536">
			<stop  offset="0" style="stop-color:#00BFB7"/>
			<stop  offset="1" style="stop-color:#FF00FF"/>
		</linearGradient>
		<path class="st0" d="M189.3,83.1c-0.7-1.2-1.1-2.5-1.1-4.1c0-0.4,0.1-1.1,0.2-2.2l6.7-37.9h6.6L195,77c-0.1,0.3-0.1,0.8-0.1,1.4
			c0,0.8,0.2,1.5,0.5,2.1c0.3,0.6,0.9,1.3,1.7,2.1l-4.5,4C191.2,85.4,190,84.3,189.3,83.1z M197.5,27.3c-0.7-0.7-1.1-1.6-1.1-2.8
			c0-1.4,0.6-2.6,1.7-3.7c1.1-1.1,2.4-1.6,3.9-1.6c1.1,0,1.9,0.4,2.7,1.1c0.7,0.7,1.1,1.6,1.1,2.7c0,1.4-0.6,2.6-1.7,3.8
			c-1.1,1.1-2.4,1.7-3.8,1.7C199.2,28.4,198.2,28,197.5,27.3z"/>
		
			<linearGradient id="SVGID_00000026865081131580663840000006703260002190424733_" gradientUnits="userSpaceOnUse" x1="-2.0654" y1="122.9639" x2="340.1457" y2="33.1758">
			<stop  offset="0" style="stop-color:#00BFB7"/>
			<stop  offset="1" style="stop-color:#FF00FF"/>
		</linearGradient>
		<path style="fill:url(#SVGID_00000026865081131580663840000006703260002190424733_);" d="M214.5,84.6c-2.7-1.3-4.9-3.3-6.4-6.1
			l5-3.7c1.5,2.4,3.1,4,4.9,5c1.7,0.9,4.1,1.4,7.1,1.4c4.2,0,7.5-0.8,10-2.5c2.4-1.7,3.6-4,3.6-6.9c0-2-0.9-3.5-2.7-4.5
			c-1.8-1-5.2-2-10.2-2.9c-4-0.7-6.9-2-8.8-3.8c-1.9-1.8-2.9-4.1-2.9-7c0-3,0.8-5.7,2.4-8.1c1.6-2.4,3.9-4.2,6.7-5.6s6.1-2,9.8-2
			c8.1,0,13.2,2.5,15.5,7.5l-4.9,3.6c-1.2-2-2.7-3.4-4.6-4.4c-1.9-0.9-4.2-1.4-6.9-1.4c-3.3,0-6.1,0.9-8.3,2.6
			c-2.2,1.8-3.3,4-3.3,6.6c0,1.7,0.7,3.1,2.1,4.1c1.4,1,3.8,1.9,7.1,2.5c5.7,1.1,9.7,2.6,11.9,4.3c2.3,1.8,3.4,4.3,3.4,7.7
			c0,5-1.7,8.9-5.2,11.5c-3.5,2.7-8.4,4-14.8,4C220.7,86.6,217.2,85.9,214.5,84.6z"/>
		
			<linearGradient id="SVGID_00000078741620701201831780000018018820879755968399_" gradientUnits="userSpaceOnUse" x1="0.9374" y1="134.4086" x2="343.1485" y2="44.6205">
			<stop  offset="0" style="stop-color:#00BFB7"/>
			<stop  offset="1" style="stop-color:#FF00FF"/>
		</linearGradient>
		<path style="fill:url(#SVGID_00000078741620701201831780000018018820879755968399_);" d="M259.5,82.6c-3-2.6-4.5-6.1-4.5-10.5
			c0-1.2,0.1-2.4,0.3-3.6l2.3-12.9c1-5.5,3.3-9.9,7-13.1s8.8-4.8,15.3-4.8c5.7,0,10.1,1.3,13,3.9c2.9,2.6,4.4,6.1,4.4,10.4
			c0,1.1-0.1,2.3-0.3,3.7l-2.3,12.9c-0.9,5.5-3.2,9.8-6.8,13.1c-3.6,3.2-8.6,4.9-15.1,4.9C266.9,86.6,262.5,85.2,259.5,82.6z
			 M283.2,77.7c2.5-2.3,4.1-5.4,4.8-9.1l2.3-12.9c0.2-1,0.3-2,0.3-3c0-2.9-0.9-5.2-2.7-7c-1.8-1.7-4.6-2.6-8.5-2.6
			c-4.4,0-7.9,1.2-10.4,3.5c-2.5,2.3-4.1,5.3-4.8,9.1l-2.3,12.9c-0.2,1-0.3,2-0.3,3c0,3,0.9,5.3,2.7,7c1.8,1.7,4.6,2.6,8.4,2.6
			C277.1,81.2,280.6,80,283.2,77.7z"/>
	</g>
	
		<linearGradient id="SVGID_00000013911073267025363800000007135472146082374288_" gradientUnits="userSpaceOnUse" x1="3.4412" y1="143.9514" x2="345.6523" y2="54.1633">
		<stop  offset="0" style="stop-color:#00BFB7"/>
		<stop  offset="1" style="stop-color:#FF00FF"/>
	</linearGradient>
	<path style="fill:url(#SVGID_00000013911073267025363800000007135472146082374288_);" d="M307.8,55.8c2.4-12.5,12-18.9,22.8-18.3
		l-1.1,6.4v0c-10.5-0.1-14,7.9-15.9,16.9l-4.4,24.6h-6.6L307.8,55.8"/>
	<g>
		
			<linearGradient id="SVGID_00000084520390363459900230000007367801533687117759_" gradientUnits="userSpaceOnUse" x1="-16.8434" y1="66.6402" x2="325.3676" y2="-23.1479">
			<stop  offset="0" style="stop-color:#00BFB7"/>
			<stop  offset="1" style="stop-color:#FF00FF"/>
		</linearGradient>
		<path style="fill:url(#SVGID_00000084520390363459900230000007367801533687117759_);" d="M121.2,60.1c-1,2.1-2.1,4-3.4,5.7
			c-6.2,8.7-15,13.1-26.4,13.1h-20l-0.3-2.6l0,0l-3.7-28.1v0l-4.4-33c-0.7-5.6-2-9.6-3.7-11.8C57.5,1.1,54.8,0,51.1,0
			c-3.8,0-6.9,1.2-9.2,3.6c-2.4,2.4-4.9,6.3-7.5,11.7L0,85.9h8.7l34.2-70.5c1.3-2.7,2.4-4.5,3.4-5.6c1-1.1,2.2-1.6,3.6-1.6
			c1.3,0,2.3,0.5,2.9,1.6c0.6,1.1,1.2,3,1.6,5.6l9.2,70.5h8.8h19c9.3,0,17.2-2.3,23.9-6.8c2.8-1.9,5.2-4.1,7.5-6.7L121.2,60.1z"/>
		
			<linearGradient id="SVGID_00000029746298271027766760000016266347146902255503_" gradientUnits="userSpaceOnUse" x1="-14.0907" y1="77.1316" x2="328.1203" y2="-12.6565">
			<stop  offset="0" style="stop-color:#00BFB7"/>
			<stop  offset="1" style="stop-color:#FF00FF"/>
		</linearGradient>
		<path style="fill:url(#SVGID_00000029746298271027766760000016266347146902255503_);" d="M185.4,1.3L152,71.9
			c-1.3,2.7-2.4,4.6-3.3,5.7c-0.9,1-2,1.6-3.3,1.6c-1.2,0-2.1-0.5-2.7-1.6c-0.6-1-1.1-2.9-1.4-5.7l-5.9-49.6h0
			c-1-6.1-3.3-10.8-7-14.1c-5-4.5-12.8-6.8-23.3-6.8H75.6l-2.5,14.2l3.8,28.1l6.2-35.4h21.4c3.9,0,7.3,0.4,10.2,1.3l0.4-0.8l0.1,1
			c2.6,0.8,4.8,2,6.6,3.6c2.3,2.1,3.9,5.1,4.8,8.8l0.3,0.2l6,49.7c0.6,5.5,1.9,9.4,3.7,11.7s4.6,3.5,8.3,3.5c2.6,0,4.8-0.6,6.6-1.7
			c1.8-1.2,3.4-2.8,4.7-4.9c1.3-2.1,2.9-5,4.6-8.6l33.5-70.7H185.4z"/>
	</g>
</g>
</svg>
